# xmcd CD database file
#
# Track frame offsets:
#	183
#	14735
#	32838
#	43903
#	62818
#	78208
#	95638
#	107920
#	119175
#	131233
#	144770
#
# Disc length: 2164 seconds
#
# Revision: 2
# Processed by: cddbd v1.5.2PL0 Copyright (c) Steve Scherf et al.
# Submitted via: CDex 1.79
#
DISCID=a308720b
DTITLE=Don Cox - All Over Town
DYEAR=1994
DGENRE=Country
TTITLE0=All Over Town
TTITLE1=In My Father Eyes
TTITLE2=Too Much To Little
TTITLE3=Your Part
TTITLE4=A Month Of Somedays
TTITLE5=Todays The Day
TTITLE6=Honey Don't Pay The Ransom
TTITLE7=Chase The Moon
TTITLE8=The Jukebox Has A Forty-Five
TTITLE9=Suicide Mission
TTITLE10=A Long Way Past Goodbye
EXTD=46 YEAR: 1994
EXTT0=
EXTT1=
EXTT2=
EXTT3=
EXTT4=
EXTT5=
EXTT6=
EXTT7=
EXTT8=
EXTT9=
EXTT10=
PLAYORDER=
